<svg width="646" height="488" viewBox="0 0 646 488" fill="none" xmlns="http://www.w3.org/2000/svg">
<path opacity="0.45" d="M553.644 429.385L608.417 424.802L622.554 447.238L598.152 438.454L614.639 487.429L575.127 452.846L573.255 462.188L561.794 452.814L563.269 480.902L532.942 435.71L553.644 429.385Z" fill="#FFCB00"/>
<path opacity="0.45" d="M262.25 150.585L164.928 158.729L139.81 118.865L183.168 134.471L153.874 47.4532L224.078 108.899L227.405 92.3007L247.769 108.957L245.148 59.0502L299.033 139.348L262.25 150.585Z" fill="#FFCB00"/>
<path d="M310.322 178.96L454.058 166.933L480.257 102.76L421.216 136.108L441.248 2.29306L355.044 108.933L345.892 85.5954L320.583 114.829L311.437 41.5627L253.877 171.631L310.322 178.96Z" fill="#FFCB00"/>
<rect x="2.13891" y="1.85922" width="620" height="318" rx="38" transform="matrix(0.997698 -0.0678124 0.0717557 0.997422 0.0460745 155.559)" />
<path d="M143.139 386.244L106.288 388.748L166.077 262.581L96.2536 267.326L93.9907 235.872L202.389 228.504L204.419 256.727L143.139 386.244ZM257.734 378.455L220.883 380.96L280.672 254.792L210.849 259.537L208.586 228.083L316.984 220.715L319.014 248.938L257.734 378.455ZM372.33 370.666L335.479 373.171L395.267 247.003L325.444 251.749L323.181 220.294L431.579 212.926L433.61 241.149L372.33 370.666ZM486.925 362.877L450.074 365.382L509.862 239.214L440.039 243.96L437.777 212.505L546.174 205.137L548.205 233.36L486.925 362.877Z" fill="#FFCB00"/>
<rect x="2.13891" y="1.85922" width="620" height="318" rx="38" transform="matrix(0.997698 -0.0678124 0.0717557 0.997422 0.0460745 155.559)" stroke="#FFCB00" stroke-width="4"/>
</svg>
