<svg width="720" height="444" viewBox="0 0 720 444" fill="none" xmlns="http://www.w3.org/2000/svg">
<path d="M85.3913 239.835L494.006 204.127" stroke="#5DCB29" stroke-width="1.02273" stroke-miterlimit="10"/>
<path d="M271.824 17.9087L307.574 426.063" stroke="#5DCB29" stroke-width="1.02273" stroke-miterlimit="10"/>
<path d="M307.601 426.064C307.601 426.064 367.775 329.923 357.793 216.043C347.811 102.164 271.825 17.9126 271.825 17.9126" stroke="#5DCB29" stroke-width="1.02273" stroke-miterlimit="10"/>
<path d="M307.592 426.072C420.418 416.222 503.87 316.862 493.988 204.146C484.106 91.4299 384.631 8.04029 271.806 17.8905C158.98 27.7407 75.5277 127.101 85.4099 239.817C95.2921 352.533 194.766 435.922 307.592 426.072Z" stroke="#5DCB29" stroke-width="1.02273" stroke-miterlimit="10"/>
<path d="M307.607 426.064C307.607 426.064 439.785 368.653 425.885 210.096C411.985 51.539 271.825 17.9062 271.825 17.9062" stroke="#5DCB29" stroke-width="1.02273" stroke-miterlimit="10"/>
<path d="M307.575 426.071C307.575 426.071 231.589 341.82 221.607 227.941C211.625 114.061 271.799 17.92 271.799 17.92" stroke="#5DCB29" stroke-width="1.02273" stroke-miterlimit="10"/>
<path d="M307.574 426.077C307.574 426.077 167.414 392.444 153.514 233.887C139.614 75.3303 271.793 17.9191 271.793 17.9191" stroke="#5DCB29" stroke-width="1.02273" stroke-miterlimit="10"/>
<path d="M114.987 329.352C135.984 318.078 192.674 293.07 295.141 284.121C397.608 275.171 457.786 289.971 480.425 297.435" stroke="#5DCB29" stroke-width="1.02273" stroke-miterlimit="10"/>
<path d="M168.697 387.392C189.045 375.543 229.738 358.394 301.101 352.161C371.924 345.975 414.866 355.621 437.118 363.727" stroke="#5DCB29" stroke-width="1.02273" stroke-miterlimit="10"/>
<path d="M98.9735 146.539C121.613 154.002 181.791 168.802 284.258 159.852C386.724 150.903 443.414 125.895 464.411 114.621" stroke="#5DCB29" stroke-width="1.02273" stroke-miterlimit="10"/>
<path d="M141.778 80.0679C163.878 88.2097 206.936 98.0445 278.298 91.8118C349.121 85.6262 389.733 68.6832 410.237 56.8425" stroke="#5DCB29" stroke-width="1.02273" stroke-miterlimit="10"/>
<path d="M169.629 194.119L61.1183 244.844L14.8628 208.283L71.5698 208.442L0.00012207 117.854L107.551 160.914L104.164 139.871L134.854 150.979L110.133 93.0386L207.092 165.293L169.629 194.119Z" fill="#4100FB"/>
<path d="M138.222 156.967L246.733 106.242L292.989 142.803L236.282 142.644L307.851 233.232L200.3 190.172L203.688 211.216L172.998 200.107L197.719 258.048L100.759 185.793L138.222 156.967Z" fill="#4100FB"/>
<g opacity="0.2">
<path d="M403.315 238.956L605.897 144.256L692.252 212.512L586.384 212.216L720 381.337L519.209 300.947L525.533 340.234L468.238 319.494L514.39 427.666L333.374 292.772L403.315 238.956Z" fill="#5DCB29"/>
<path d="M461.949 308.315L259.367 403.015L173.011 334.759L278.879 335.056L145.263 165.935L346.054 246.324L339.73 207.038L397.025 227.777L350.873 119.606L531.889 254.499L461.949 308.315Z" fill="#5DCB29"/>
</g>
</svg>
