<svg width="1539" height="391" viewBox="0 0 1539 391" fill="none" xmlns="http://www.w3.org/2000/svg">
<path d="M182.401 139.386C200.401 154.594 210.245 174.254 211.931 198.366C213.617 222.478 206.605 243.316 190.896 260.882C175.405 278.197 155.135 287.73 130.087 289.481L101.294 291.495L106.818 370.502L50.9867 374.406L33.5531 125.095L118.178 119.177C143.227 117.426 164.634 124.162 182.401 139.386ZM157.855 202.148C157.2 192.784 153.383 185.288 146.402 179.66C139.64 173.781 131.225 171.194 121.159 171.898L93.0679 173.862L97.635 239.174L125.726 237.21C135.558 236.523 143.531 232.789 149.643 226.01C155.756 219.232 158.493 211.277 157.855 202.148ZM252.112 360.342L234.678 111.031L332.998 104.155C355.939 102.551 375.057 108.507 390.352 122.022C405.647 135.538 414.031 152.829 415.504 173.898C417.698 205.267 402.926 227.824 371.189 241.57L467.011 345.315L399.943 350.005L309.528 252.939L300.749 253.553L307.943 356.438L252.112 360.342ZM297.434 206.149L333.251 203.644C341.678 203.055 348.311 200.356 353.151 195.548C358.224 190.724 360.515 184.8 360.024 177.778C359.5 170.287 356.398 164.622 350.72 160.785C345.275 156.932 338.339 155.299 329.911 155.889L294.095 158.393L297.434 206.149ZM477.584 344.575L460.15 95.2641L618.164 84.2147L621.897 137.588L519.714 144.734L522.832 189.329L603.946 183.657L607.679 237.03L526.565 242.702L529.683 287.298L631.866 280.152L635.598 333.526L477.584 344.575ZM754.68 329.433C725.652 331.463 701.654 324.673 682.684 309.062C663.714 293.451 652.975 274.442 650.467 252.034L706.299 248.13C708.892 258.299 714.139 266.048 722.039 271.377C730.157 276.455 739.834 278.601 751.071 277.815C760.669 277.144 768.255 274.614 773.829 270.225C779.637 265.82 782.304 260.223 781.829 253.434C780.994 241.495 769.478 233.244 747.282 228.68L722.611 224.053C701.384 219.892 684.359 211.908 671.536 200.102C658.713 188.296 651.522 172.92 649.962 153.975C648.341 130.799 654.781 111.882 669.282 97.2246C684.001 82.3162 704.352 73.9535 730.337 72.1365C756.555 70.3031 778.415 76.7727 795.914 91.5453C813.398 106.084 823.32 123.503 825.68 143.804L770.2 147.684C766.986 138.734 762.072 132.374 755.457 128.602C748.842 124.83 741.671 123.214 733.946 123.754C725.285 124.36 718.385 126.607 713.246 130.495C708.107 134.383 705.65 139.612 705.874 146.183C706.099 152.754 708.816 157.975 714.027 161.845C719.472 165.698 727.442 168.67 737.939 170.758L766.897 176.144C788.124 180.305 804.924 188.422 817.294 200.495C829.9 212.552 836.881 228.295 838.24 247.725C839.746 269.262 832.813 287.86 817.441 303.52C802.053 318.946 781.133 327.583 754.68 329.433ZM840.802 319.177L930.116 62.4009L980.681 58.8651L1104.86 300.712L1046.57 304.788L1020.77 253.663L917.531 260.882L899.092 315.101L840.802 319.177ZM960.53 134.022L934.157 211.025L997.012 206.63L960.53 134.022ZM1123.82 299.386L1106.39 50.0746L1162.22 46.1705L1175.92 242.108L1279.16 234.889L1282.89 288.263L1123.82 299.386ZM1310.55 286.329L1293.11 37.0177L1451.13 25.9683L1454.86 79.342L1352.68 86.4873L1355.79 131.082L1436.91 125.41L1440.64 178.784L1359.53 184.456L1362.65 229.051L1464.83 221.906L1468.56 275.28L1310.55 286.329Z" fill="#0E0034"/>
<path d="M182.401 139.386L181.75 140.146L181.755 140.15L182.401 139.386ZM190.896 260.882L191.642 261.549L191.642 261.548L190.896 260.882ZM101.294 291.495L101.224 290.497L100.226 290.567L100.296 291.564L101.294 291.495ZM106.818 370.502L106.888 371.499L107.886 371.43L107.816 370.432L106.818 370.502ZM50.9867 374.406L49.9891 374.476L50.0588 375.473L51.0564 375.403L50.9867 374.406ZM33.5531 125.095L33.4834 124.097L32.4858 124.167L32.5555 125.164L33.5531 125.095ZM146.402 179.66L145.746 180.414L145.76 180.426L145.775 180.438L146.402 179.66ZM93.0679 173.862L92.9982 172.864L92.0006 172.934L92.0704 173.932L93.0679 173.862ZM97.635 239.174L96.6375 239.244L96.7072 240.242L97.7048 240.172L97.635 239.174ZM149.643 226.01L148.901 225.341L149.643 226.01ZM181.755 140.15C199.544 155.179 209.265 174.586 210.933 198.436L212.928 198.296C211.224 173.923 201.259 154.01 183.046 138.623L181.755 140.15ZM210.933 198.436C212.601 222.286 205.675 242.857 190.151 260.215L191.642 261.548C207.536 243.776 214.633 222.67 212.928 198.296L210.933 198.436ZM190.151 260.215C174.848 277.319 154.829 286.749 130.018 288.484L130.157 290.479C155.442 288.711 175.962 279.074 191.642 261.549L190.151 260.215ZM130.018 288.484L101.224 290.497L101.363 292.492L130.157 290.479L130.018 288.484ZM100.296 291.564L105.821 370.572L107.816 370.432L102.291 291.425L100.296 291.564ZM106.749 369.504L50.9169 373.408L51.0564 375.403L106.888 371.499L106.749 369.504ZM51.9842 374.336L34.5507 125.025L32.5555 125.164L49.9891 374.476L51.9842 374.336ZM33.6229 126.092L118.248 120.175L118.109 118.18L33.4834 124.097L33.6229 126.092ZM118.248 120.175C143.055 118.44 164.198 125.106 181.75 140.146L183.051 138.627C165.07 123.218 143.398 116.411 118.109 118.18L118.248 120.175ZM158.852 202.078C158.179 192.451 154.238 184.693 147.03 178.881L145.775 180.438C152.527 185.883 156.221 193.116 156.857 202.217L158.852 202.078ZM147.058 178.905C140.07 172.83 131.384 170.18 121.09 170.9L121.229 172.895C131.067 172.207 139.21 174.732 145.746 180.414L147.058 178.905ZM121.09 170.9L92.9982 172.864L93.1377 174.86L121.229 172.895L121.09 170.9ZM92.0704 173.932L96.6375 239.244L98.6326 239.105L94.0655 173.792L92.0704 173.932ZM97.7048 240.172L125.796 238.208L125.657 236.213L97.5653 238.177L97.7048 240.172ZM125.796 238.208C135.864 237.504 144.085 233.668 150.386 226.68L148.901 225.341C142.976 231.911 135.253 235.542 125.657 236.213L125.796 238.208ZM150.386 226.68C156.681 219.699 159.51 211.478 158.852 202.078L156.857 202.217C157.477 211.077 154.831 218.764 148.901 225.341L150.386 226.68ZM252.112 360.342L251.114 360.412L251.184 361.409L252.182 361.339L252.112 360.342ZM234.678 111.031L234.608 110.033L233.611 110.103L233.681 111.1L234.678 111.031ZM390.352 122.022L389.69 122.772L390.352 122.022ZM371.189 241.57L370.791 240.653L369.498 241.213L370.454 242.249L371.189 241.57ZM467.011 345.315L467.081 346.312L469.159 346.167L467.746 344.636L467.011 345.315ZM399.943 350.005L399.211 350.686L399.536 351.035L400.013 351.002L399.943 350.005ZM309.528 252.939L310.259 252.258L309.934 251.908L309.458 251.942L309.528 252.939ZM300.749 253.553L300.679 252.555L299.682 252.625L299.751 253.623L300.749 253.553ZM307.943 356.438L308.013 357.435L309.011 357.366L308.941 356.368L307.943 356.438ZM297.434 206.149L296.437 206.218L296.506 207.216L297.504 207.146L297.434 206.149ZM353.15 195.548L352.461 194.824L352.453 194.831L352.446 194.839L353.15 195.548ZM350.72 160.785L350.142 161.601L350.151 161.608L350.16 161.614L350.72 160.785ZM294.095 158.393L294.025 157.396L293.028 157.466L293.097 158.463L294.095 158.393ZM253.109 360.272L235.676 110.961L233.681 111.1L251.114 360.412L253.109 360.272ZM234.748 112.028L333.068 105.153L332.928 103.158L234.608 110.033L234.748 112.028ZM333.068 105.153C355.779 103.565 374.622 109.457 389.69 122.772L391.014 121.273C375.493 107.557 356.1 101.538 332.928 103.158L333.068 105.153ZM389.69 122.772C404.781 136.106 413.051 153.151 414.507 173.968L416.502 173.828C415.011 152.508 406.513 134.969 391.014 121.273L389.69 122.772ZM414.507 173.968C415.591 189.472 412.481 202.728 405.234 213.795C397.982 224.869 386.531 233.835 370.791 240.653L371.586 242.488C387.584 235.559 399.388 226.373 406.907 214.89C414.432 203.4 417.611 189.693 416.502 173.828L414.507 173.968ZM370.454 242.249L466.276 345.993L467.746 344.636L371.923 240.892L370.454 242.249ZM466.941 344.317L399.873 349.007L400.013 351.002L467.081 346.312L466.941 344.317ZM400.675 349.323L310.259 252.258L308.796 253.621L399.211 350.686L400.675 349.323ZM309.458 251.942L300.679 252.555L300.819 254.551L309.597 253.937L309.458 251.942ZM299.751 253.623L306.946 356.507L308.941 356.368L301.747 253.483L299.751 253.623ZM307.874 355.44L252.042 359.344L252.182 361.339L308.013 357.435L307.874 355.44ZM297.504 207.146L333.321 204.642L333.181 202.647L297.364 205.151L297.504 207.146ZM333.321 204.642C341.928 204.04 348.808 201.272 353.855 196.258L352.446 194.839C347.815 199.44 341.428 202.07 333.181 202.647L333.321 204.642ZM353.84 196.273C359.13 191.242 361.533 185.026 361.021 177.708L359.026 177.847C359.496 184.575 357.317 190.206 352.461 194.824L353.84 196.273ZM361.021 177.708C360.478 169.944 357.24 163.984 351.279 159.957L350.16 161.614C355.557 165.261 358.521 170.629 359.026 177.847L361.021 177.708ZM351.297 159.969C345.619 155.95 338.437 154.29 329.842 154.891L329.981 156.886C338.241 156.309 344.931 157.914 350.142 161.601L351.297 159.969ZM329.842 154.891L294.025 157.396L294.165 159.391L329.981 156.886L329.842 154.891ZM293.097 158.463L296.437 206.218L298.432 206.079L295.092 158.324L293.097 158.463ZM477.584 344.575L476.586 344.645L476.656 345.643L477.653 345.573L477.584 344.575ZM460.15 95.2641L460.08 94.2665L459.083 94.3363L459.153 95.3339L460.15 95.2641ZM618.164 84.2147L619.162 84.1449L619.092 83.1474L618.095 83.2171L618.164 84.2147ZM621.897 137.588L621.966 138.586L622.964 138.516L622.894 137.519L621.897 137.588ZM519.714 144.734L519.644 143.736L518.647 143.806L518.717 144.803L519.714 144.734ZM522.833 189.329L521.835 189.399L521.905 190.396L522.902 190.326L522.833 189.329ZM603.946 183.657L604.944 183.587L604.874 182.589L603.877 182.659L603.946 183.657ZM607.679 237.03L607.748 238.028L608.746 237.958L608.676 236.961L607.679 237.03ZM526.565 242.702L526.495 241.705L525.497 241.775L525.567 242.772L526.565 242.702ZM529.683 287.298L528.686 287.367L528.755 288.365L529.753 288.295L529.683 287.298ZM631.866 280.152L632.863 280.082L632.793 279.085L631.796 279.155L631.866 280.152ZM635.598 333.526L635.668 334.523L636.665 334.454L636.595 333.456L635.598 333.526ZM478.581 344.506L461.148 95.1943L459.153 95.3339L476.586 344.645L478.581 344.506ZM460.22 96.2617L618.234 85.2122L618.095 83.2171L460.08 94.2665L460.22 96.2617ZM617.167 84.2844L620.899 137.658L622.894 137.519L619.162 84.1449L617.167 84.2844ZM621.827 136.591L519.644 143.736L519.784 145.731L621.966 138.586L621.827 136.591ZM518.717 144.803L521.835 189.399L523.83 189.259L520.712 144.664L518.717 144.803ZM522.902 190.326L604.016 184.654L603.877 182.659L522.763 188.331L522.902 190.326ZM602.949 183.726L606.681 237.1L608.676 236.961L604.944 183.587L602.949 183.726ZM607.609 236.033L526.495 241.705L526.635 243.7L607.748 238.028L607.609 236.033ZM525.567 242.772L528.686 287.367L530.681 287.228L527.562 242.633L525.567 242.772ZM529.753 288.295L631.935 281.15L631.796 279.155L529.613 286.3L529.753 288.295ZM630.868 280.222L634.6 333.596L636.595 333.456L632.863 280.082L630.868 280.222ZM635.528 332.528L477.514 343.578L477.653 345.573L635.668 334.523L635.528 332.528ZM682.684 309.062L683.319 308.29L682.684 309.062ZM650.467 252.034L650.397 251.037L649.358 251.109L649.473 252.145L650.467 252.034ZM706.299 248.13L707.268 247.883L707.062 247.074L706.229 247.132L706.299 248.13ZM722.039 271.377L721.48 272.206L721.494 272.215L721.509 272.224L722.039 271.377ZM773.829 270.225L773.224 269.428L773.217 269.434L773.21 269.44L773.829 270.225ZM747.282 228.68L747.483 227.7L747.475 227.699L747.466 227.697L747.282 228.68ZM722.611 224.053L722.419 225.035L722.427 225.036L722.611 224.053ZM671.536 200.102L672.213 199.366L671.536 200.102ZM649.962 153.975L648.964 154.044L648.965 154.057L649.962 153.975ZM669.282 97.2246L669.993 97.9279L669.994 97.9271L669.282 97.2246ZM795.914 91.5453L795.269 92.3095L795.275 92.3142L795.914 91.5453ZM825.68 143.804L825.75 144.802L826.795 144.729L826.674 143.689L825.68 143.804ZM770.2 147.684L769.259 148.022L769.514 148.734L770.27 148.681L770.2 147.684ZM755.457 128.602L754.961 129.47L755.457 128.602ZM713.246 130.495L713.849 131.292L713.246 130.495ZM705.874 146.183L704.875 146.217L705.874 146.183ZM714.027 161.845L713.431 162.648L713.44 162.654L713.449 162.661L714.027 161.845ZM737.939 170.758L737.744 171.739L737.756 171.742L737.939 170.758ZM766.897 176.144L767.089 175.162L767.08 175.16L766.897 176.144ZM817.295 200.495L816.596 201.211L816.603 201.218L817.295 200.495ZM817.441 303.52L818.149 304.226L818.155 304.221L817.441 303.52ZM754.61 328.436C725.788 330.451 702.056 323.708 683.319 308.29L682.048 309.834C701.251 325.637 725.517 332.475 754.75 330.431L754.61 328.436ZM683.319 308.29C664.531 292.828 653.937 274.048 651.461 251.923L649.473 252.145C652.013 274.836 662.897 294.074 682.048 309.834L683.319 308.29ZM650.537 253.032L706.369 249.128L706.229 247.132L650.397 251.037L650.537 253.032ZM705.33 248.377C707.977 258.758 713.355 266.726 721.48 272.206L722.598 270.548C714.922 265.371 709.807 257.84 707.268 247.883L705.33 248.377ZM721.509 272.224C729.836 277.433 739.731 279.611 751.14 278.813L751.001 276.818C739.937 277.591 730.478 275.476 722.569 270.529L721.509 272.224ZM751.14 278.813C760.869 278.133 768.669 275.561 774.447 271.011L773.21 269.44C767.841 273.667 760.468 276.156 751.001 276.818L751.14 278.813ZM774.433 271.022C780.487 266.43 783.327 260.518 782.826 253.364L780.831 253.504C781.281 259.928 778.786 265.21 773.224 269.428L774.433 271.022ZM782.826 253.364C782.384 247.042 779.099 241.743 773.149 237.479C767.229 233.237 758.646 229.996 747.483 227.7L747.081 229.659C758.114 231.928 766.388 235.095 771.984 239.104C777.549 243.092 780.439 247.887 780.831 253.504L782.826 253.364ZM747.466 227.697L722.795 223.071L722.427 225.036L747.098 229.663L747.466 227.697ZM722.804 223.072C701.714 218.938 684.871 211.021 672.213 199.366L670.859 200.838C683.847 212.796 701.054 220.846 722.419 225.035L722.804 223.072ZM672.213 199.366C659.593 187.746 652.5 172.612 650.958 153.892L648.965 154.057C650.544 173.228 657.834 188.845 670.859 200.838L672.213 199.366ZM650.959 153.905C649.356 130.976 655.721 112.354 669.993 97.9279L668.571 96.5213C653.841 111.411 647.326 130.623 648.964 154.044L650.959 153.905ZM669.994 97.9271C684.503 83.2312 704.603 74.9384 730.407 73.1341L730.267 71.1389C704.101 72.9686 683.499 81.4012 668.571 96.522L669.994 97.9271ZM730.407 73.1341C756.407 71.3159 777.998 77.7297 795.269 92.3095L796.559 90.7812C778.831 75.8157 756.704 69.2903 730.267 71.1389L730.407 73.1341ZM795.275 92.3142C812.585 106.709 822.36 123.904 824.687 143.92L826.674 143.689C824.28 123.103 814.211 105.459 796.554 90.7764L795.275 92.3142ZM825.611 142.807L770.13 146.686L770.27 148.681L825.75 144.802L825.611 142.807ZM771.141 147.346C767.868 138.229 762.822 131.65 755.952 127.733L754.961 129.47C761.322 133.097 766.105 139.239 769.259 148.022L771.141 147.346ZM755.952 127.733C749.162 123.862 741.795 122.203 733.876 122.757L734.016 124.752C741.548 124.225 748.521 125.798 754.961 129.47L755.952 127.733ZM733.876 122.757C725.087 123.372 717.981 125.658 712.643 129.697L713.849 131.292C718.788 127.556 725.483 125.349 734.016 124.752L733.876 122.757ZM712.643 129.697C707.238 133.786 704.64 139.329 704.875 146.217L706.874 146.149C706.66 139.895 708.976 134.979 713.849 131.292L712.643 129.697ZM704.875 146.217C705.11 153.088 707.972 158.593 713.431 162.648L714.623 161.042C709.66 157.356 707.088 152.421 706.874 146.149L704.875 146.217ZM713.449 162.661C719.057 166.63 727.183 169.638 737.744 171.739L738.134 169.778C727.701 167.702 719.886 164.767 714.605 161.029L713.449 162.661ZM737.756 171.742L766.714 177.127L767.08 175.16L738.122 169.775L737.756 171.742ZM766.705 177.125C787.789 181.258 804.396 189.304 816.596 201.211L817.993 199.78C805.451 187.54 788.46 179.352 767.089 175.162L766.705 177.125ZM816.603 201.218C829.007 213.082 835.899 228.582 837.243 247.795L839.238 247.656C837.864 228.009 830.792 212.022 817.986 199.773L816.603 201.218ZM837.243 247.795C838.728 269.041 831.903 287.36 816.728 302.82L818.155 304.221C833.724 288.36 840.764 269.483 839.238 247.656L837.243 247.795ZM816.733 302.814C801.551 318.033 780.877 326.599 754.61 328.436L754.75 330.431C781.389 328.568 802.556 319.858 818.149 304.226L816.733 302.814ZM840.802 319.177L839.858 318.848L839.36 320.28L840.872 320.174L840.802 319.177ZM930.116 62.4009L930.046 61.4033L929.388 61.4493L929.172 62.0724L930.116 62.4009ZM980.681 58.8651L981.57 58.4083L981.269 57.8215L980.611 57.8675L980.681 58.8651ZM1104.86 300.712L1104.93 301.709L1106.44 301.604L1105.75 300.255L1104.86 300.712ZM1046.57 304.788L1045.68 305.238L1045.98 305.832L1046.64 305.785L1046.57 304.788ZM1020.77 253.663L1021.66 253.213L1021.36 252.619L1020.7 252.666L1020.77 253.663ZM917.531 260.882L917.461 259.885L916.798 259.931L916.584 260.56L917.531 260.882ZM899.092 315.101L899.162 316.098L899.825 316.052L900.039 315.423L899.092 315.101ZM960.53 134.022L961.424 133.573L960.355 131.446L959.584 133.698L960.53 134.022ZM934.157 211.025L933.211 210.701L932.723 212.128L934.227 212.023L934.157 211.025ZM997.012 206.63L997.082 207.627L998.58 207.523L997.905 206.181L997.012 206.63ZM841.747 319.505L931.061 62.7294L929.172 62.0724L839.858 318.848L841.747 319.505ZM930.186 63.3985L980.75 59.8626L980.611 57.8675L930.046 61.4033L930.186 63.3985ZM979.791 59.3218L1103.97 301.169L1105.75 300.255L981.57 58.4083L979.791 59.3218ZM1104.79 299.714L1046.5 303.79L1046.64 305.785L1104.93 301.709L1104.79 299.714ZM1047.46 304.337L1021.66 253.213L1019.87 254.114L1045.68 305.238L1047.46 304.337ZM1020.7 252.666L917.461 259.885L917.601 261.88L1020.84 254.661L1020.7 252.666ZM916.584 260.56L898.145 314.779L900.039 315.423L918.478 261.204L916.584 260.56ZM899.022 314.103L840.733 318.179L840.872 320.174L899.162 316.098L899.022 314.103ZM959.584 133.698L933.211 210.701L935.103 211.349L961.476 134.346L959.584 133.698ZM934.227 212.023L997.082 207.627L996.942 205.632L934.088 210.027L934.227 212.023ZM997.905 206.181L961.424 133.573L959.637 134.471L996.118 207.079L997.905 206.181ZM1123.82 299.386L1122.83 299.456L1122.9 300.453L1123.89 300.383L1123.82 299.386ZM1106.39 50.0746L1106.32 49.0771L1105.32 49.1468L1105.39 50.1444L1106.39 50.0746ZM1162.22 46.1705L1163.22 46.1008L1163.15 45.1032L1162.15 45.1729L1162.22 46.1705ZM1175.92 242.108L1174.93 242.178L1174.99 243.175L1175.99 243.106L1175.92 242.108ZM1279.16 234.889L1280.16 234.819L1280.09 233.822L1279.09 233.892L1279.16 234.889ZM1282.89 288.263L1282.96 289.26L1283.96 289.191L1283.89 288.193L1282.89 288.263ZM1124.82 299.316L1107.39 50.0049L1105.39 50.1444L1122.83 299.456L1124.82 299.316ZM1106.46 51.0722L1162.29 47.1681L1162.15 45.1729L1106.32 49.0771L1106.46 51.0722ZM1161.22 46.2403L1174.93 242.178L1176.92 242.038L1163.22 46.1008L1161.22 46.2403ZM1175.99 243.106L1279.23 235.887L1279.09 233.892L1175.85 241.111L1175.99 243.106ZM1278.16 234.959L1281.89 288.333L1283.89 288.193L1280.16 234.819L1278.16 234.959ZM1282.82 287.265L1123.75 298.388L1123.89 300.383L1282.96 289.26L1282.82 287.265ZM1310.55 286.329L1309.55 286.399L1309.62 287.396L1310.62 287.327L1310.55 286.329ZM1293.11 37.0177L1293.04 36.0201L1292.05 36.0899L1292.11 37.0875L1293.11 37.0177ZM1451.13 25.9683L1452.12 25.8985L1452.05 24.901L1451.06 24.9707L1451.13 25.9683ZM1454.86 79.342L1454.93 80.3395L1455.93 80.2698L1455.86 79.2722L1454.86 79.342ZM1352.68 86.4872L1352.61 85.4897L1351.61 85.5594L1351.68 86.557L1352.68 86.4872ZM1355.79 131.082L1354.8 131.152L1354.87 132.15L1355.86 132.08L1355.79 131.082ZM1436.91 125.41L1437.91 125.341L1437.84 124.343L1436.84 124.413L1436.91 125.41ZM1440.64 178.784L1440.71 179.782L1441.71 179.712L1441.64 178.714L1440.64 178.784ZM1359.53 184.456L1359.46 183.458L1358.46 183.528L1358.53 184.526L1359.53 184.456ZM1362.65 229.051L1361.65 229.121L1361.72 230.118L1362.72 230.049L1362.65 229.051ZM1464.83 221.906L1465.83 221.836L1465.76 220.839L1464.76 220.908L1464.83 221.906ZM1468.56 275.28L1468.63 276.277L1469.63 276.207L1469.56 275.21L1468.56 275.28ZM1311.54 286.259L1294.11 36.948L1292.11 37.0875L1309.55 286.399L1311.54 286.259ZM1293.18 38.0153L1451.2 26.9658L1451.06 24.9707L1293.04 36.0201L1293.18 38.0153ZM1450.13 26.038L1453.86 79.4117L1455.86 79.2722L1452.12 25.8985L1450.13 26.038ZM1454.79 78.3444L1352.61 85.4897L1352.75 87.4848L1454.93 80.3395L1454.79 78.3444ZM1351.68 86.557L1354.8 131.152L1356.79 131.013L1353.67 86.4175L1351.68 86.557ZM1355.86 132.08L1436.98 126.408L1436.84 124.413L1355.73 130.085L1355.86 132.08ZM1435.91 125.48L1439.64 178.854L1441.64 178.714L1437.91 125.341L1435.91 125.48ZM1440.57 177.786L1359.46 183.458L1359.6 185.454L1440.71 179.782L1440.57 177.786ZM1358.53 184.526L1361.65 229.121L1363.64 228.981L1360.52 184.386L1358.53 184.526ZM1362.72 230.049L1464.9 222.903L1464.76 220.908L1362.58 228.054L1362.72 230.049ZM1463.83 221.976L1467.56 275.349L1469.56 275.21L1465.83 221.836L1463.83 221.976ZM1468.49 274.282L1310.48 285.331L1310.62 287.327L1468.63 276.277L1468.49 274.282Z" fill="#4100FB"/>
<path d="M171.87 125.49C189.871 140.698 199.714 160.358 201.4 184.47C203.086 208.582 196.075 229.42 180.366 246.986C164.875 264.301 144.605 273.834 119.557 275.585L90.7631 277.599L96.2878 356.606L40.4561 360.51L23.0226 111.199L107.648 105.281C132.696 103.53 154.104 110.266 171.87 125.49ZM147.324 188.252C146.67 178.888 142.852 171.392 135.872 165.764C129.109 159.885 120.695 157.298 110.629 158.002L82.5374 159.966L87.1045 225.278L115.196 223.314C125.028 222.627 133 218.893 139.113 212.114C145.226 205.336 147.963 197.381 147.324 188.252ZM241.581 346.446L224.148 97.1346L322.468 90.2594C345.409 88.6552 364.527 94.6108 379.822 108.126C395.116 121.642 403.5 138.933 404.974 160.002C407.167 191.371 392.395 213.928 360.658 227.674L456.481 331.419L389.412 336.109L298.997 239.043L290.219 239.657L297.413 342.542L241.581 346.446ZM286.904 192.253L322.72 189.748C331.148 189.159 337.781 186.46 342.62 181.652C347.693 176.828 349.984 170.904 349.493 163.882C348.969 156.391 345.868 150.726 340.189 146.889C334.744 143.036 327.808 141.403 319.381 141.993L283.564 144.497L286.904 192.253ZM467.053 330.679L449.62 81.3681L607.634 70.3187L611.366 123.692L509.184 130.838L512.302 175.433L593.416 169.761L597.148 223.134L516.034 228.806L519.153 273.402L621.335 266.256L625.067 319.63L467.053 330.679ZM744.15 315.537C715.122 317.567 691.123 310.777 672.153 295.166C653.183 279.555 642.445 260.546 639.937 238.138L695.768 234.234C698.361 244.403 703.608 252.152 711.508 257.481C719.626 262.559 729.304 264.705 740.54 263.919C750.138 263.248 757.724 260.718 763.298 256.329C769.106 251.924 771.773 246.327 771.298 239.538C770.464 227.599 758.948 219.348 736.751 214.784L712.081 210.157C690.853 205.996 673.828 198.012 661.005 186.206C648.183 174.4 640.991 159.024 639.431 140.079C637.811 116.903 644.251 97.9865 658.752 83.3286C673.47 68.4202 693.822 60.0575 719.806 58.2405C746.025 56.4071 767.884 62.8767 785.384 77.6493C802.867 92.1878 812.789 109.607 815.15 129.908L759.669 133.788C756.456 124.838 751.542 118.478 744.926 114.706C738.311 110.934 731.141 109.318 723.416 109.858C714.754 110.464 707.854 112.711 702.716 116.599C697.577 120.487 695.12 125.716 695.344 132.287C695.568 138.858 698.286 144.079 703.496 147.949C708.941 151.802 716.912 154.774 727.408 156.862L756.366 162.248C777.594 166.409 794.393 174.526 806.764 186.599C819.369 198.656 826.351 214.399 827.71 233.829C829.216 255.366 822.283 273.964 806.911 289.624C791.523 305.05 770.602 313.687 744.15 315.537ZM830.272 305.281L919.586 48.5049L970.15 44.9691L1094.33 286.816L1036.04 290.892L1010.24 239.767L907 246.986L888.561 301.205L830.272 305.281ZM950 120.126L923.627 197.129L986.481 192.734L950 120.126ZM1113.29 285.49L1095.86 36.1786L1151.69 32.2745L1165.39 228.212L1268.63 220.993L1272.36 274.367L1113.29 285.49ZM1300.02 272.433L1282.58 23.1217L1440.6 12.0723L1444.33 65.446L1342.15 72.5913L1345.26 117.186L1426.38 111.514L1430.11 164.888L1349 170.56L1352.11 215.155L1454.3 208.01L1458.03 261.384L1300.02 272.433Z" fill="#0E0034"/>
<path d="M171.87 125.49L171.219 126.25L171.225 126.254L171.87 125.49ZM180.366 246.986L181.111 247.653L181.111 247.652L180.366 246.986ZM90.7631 277.599L90.6933 276.601L89.6958 276.671L89.7655 277.668L90.7631 277.599ZM96.2878 356.606L96.3576 357.603L97.3551 357.534L97.2854 356.536L96.2878 356.606ZM40.4561 360.51L39.4586 360.58L39.5283 361.577L40.5259 361.507L40.4561 360.51ZM23.0226 111.199L22.9528 110.201L21.9553 110.271L22.025 111.268L23.0226 111.199ZM135.872 165.764L135.216 166.518L135.23 166.53L135.244 166.542L135.872 165.764ZM82.5374 159.966L82.4676 158.968L81.4701 159.038L81.5398 160.036L82.5374 159.966ZM87.1045 225.278L86.1069 225.348L86.1767 226.346L87.1743 226.276L87.1045 225.278ZM139.113 212.114L138.37 211.445L139.113 212.114ZM171.225 126.254C189.013 141.283 198.735 160.69 200.403 184.54L202.398 184.4C200.693 160.027 190.728 140.114 172.515 124.727L171.225 126.254ZM200.403 184.54C202.07 208.39 195.144 228.961 179.621 246.319L181.111 247.652C197.005 229.88 204.102 208.774 202.398 184.4L200.403 184.54ZM179.621 246.319C164.318 263.423 144.299 272.853 119.487 274.588L119.627 276.583C144.911 274.815 165.432 265.178 181.111 247.653L179.621 246.319ZM119.487 274.588L90.6933 276.601L90.8328 278.596L119.627 276.583L119.487 274.588ZM89.7655 277.668L95.2902 356.676L97.2854 356.536L91.7607 277.529L89.7655 277.668ZM96.218 355.608L40.3864 359.512L40.5259 361.507L96.3576 357.603L96.218 355.608ZM41.4537 360.44L24.0202 111.129L22.025 111.268L39.4586 360.58L41.4537 360.44ZM23.0924 112.196L107.718 106.279L107.578 104.284L22.9528 110.201L23.0924 112.196ZM107.718 106.279C132.525 104.544 153.668 111.21 171.219 126.25L172.521 124.731C154.539 109.322 132.867 102.515 107.578 104.284L107.718 106.279ZM148.322 188.182C147.649 178.555 143.707 170.797 136.499 164.985L135.244 166.542C141.997 171.987 145.69 179.22 146.327 188.321L148.322 188.182ZM136.528 165.009C129.539 158.934 120.853 156.284 110.559 157.004L110.699 158.999C120.537 158.311 128.679 160.836 135.216 166.518L136.528 165.009ZM110.559 157.004L82.4676 158.968L82.6072 160.964L110.699 158.999L110.559 157.004ZM81.5398 160.036L86.1069 225.348L88.1021 225.209L83.535 159.896L81.5398 160.036ZM87.1743 226.276L115.266 224.312L115.126 222.317L87.0347 224.281L87.1743 226.276ZM115.266 224.312C125.333 223.608 133.555 219.772 139.856 212.784L138.37 211.445C132.446 218.015 124.722 221.646 115.126 222.317L115.266 224.312ZM139.856 212.784C146.151 205.803 148.979 197.582 148.322 188.182L146.327 188.321C146.946 197.181 144.301 204.868 138.37 211.445L139.856 212.784ZM241.581 346.446L240.584 346.516L240.653 347.513L241.651 347.443L241.581 346.446ZM224.148 97.1346L224.078 96.1371L223.08 96.2068L223.15 97.2044L224.148 97.1346ZM379.822 108.126L379.159 108.876L379.822 108.126ZM360.658 227.674L360.261 226.757L358.967 227.317L359.924 228.353L360.658 227.674ZM456.481 331.419L456.55 332.416L458.629 332.271L457.215 330.74L456.481 331.419ZM389.412 336.109L388.681 336.79L389.006 337.139L389.482 337.106L389.412 336.109ZM298.997 239.043L299.729 238.362L299.403 238.012L298.927 238.046L298.997 239.043ZM290.219 239.657L290.149 238.659L289.151 238.729L289.221 239.727L290.219 239.657ZM297.413 342.542L297.483 343.539L298.48 343.47L298.41 342.472L297.413 342.542ZM286.904 192.253L285.906 192.322L285.976 193.32L286.973 193.25L286.904 192.253ZM342.62 181.652L341.931 180.928L341.923 180.935L341.915 180.943L342.62 181.652ZM340.189 146.889L339.611 147.705L339.62 147.712L339.629 147.718L340.189 146.889ZM283.564 144.497L283.495 143.5L282.497 143.57L282.567 144.567L283.564 144.497ZM242.579 346.376L225.145 97.0649L223.15 97.2044L240.584 346.516L242.579 346.376ZM224.217 98.1322L322.537 91.257L322.398 89.2619L224.078 96.1371L224.217 98.1322ZM322.537 91.257C345.248 89.6689 364.092 95.5608 379.159 108.876L380.484 107.377C364.962 93.6608 345.57 87.6416 322.398 89.2619L322.537 91.257ZM379.159 108.876C394.25 122.21 402.52 139.255 403.976 160.072L405.971 159.932C404.48 138.612 395.983 121.073 380.484 107.377L379.159 108.876ZM403.976 160.072C405.06 175.576 401.95 188.832 394.703 199.899C387.451 210.973 376 219.939 360.261 226.757L361.056 228.592C377.053 221.663 388.857 212.477 396.377 200.994C403.901 189.504 407.081 175.797 405.971 159.932L403.976 160.072ZM359.924 228.353L455.746 332.097L457.215 330.74L361.393 226.996L359.924 228.353ZM456.411 330.421L389.343 335.111L389.482 337.106L456.55 332.416L456.411 330.421ZM390.144 335.427L299.729 238.362L298.265 239.725L388.681 336.79L390.144 335.427ZM298.927 238.046L290.149 238.659L290.288 240.655L299.067 240.041L298.927 238.046ZM289.221 239.727L296.415 342.611L298.41 342.472L291.216 239.587L289.221 239.727ZM297.343 341.544L241.512 345.448L241.651 347.443L297.483 343.539L297.343 341.544ZM286.973 193.25L322.79 190.746L322.651 188.751L286.834 191.255L286.973 193.25ZM322.79 190.746C331.398 190.144 338.278 187.376 343.325 182.362L341.915 180.943C337.284 185.544 330.898 188.174 322.651 188.751L322.79 190.746ZM343.309 182.377C348.6 177.346 351.002 171.13 350.491 163.812L348.496 163.951C348.966 170.679 346.786 176.31 341.931 180.928L343.309 182.377ZM350.491 163.812C349.948 156.048 346.709 150.088 340.749 146.061L339.629 147.718C345.027 151.365 347.991 156.733 348.496 163.951L350.491 163.812ZM340.767 146.073C335.088 142.054 327.906 140.394 319.311 140.995L319.451 142.99C327.71 142.413 334.401 144.018 339.611 147.705L340.767 146.073ZM319.311 140.995L283.495 143.5L283.634 145.495L319.451 142.99L319.311 140.995ZM282.567 144.567L285.906 192.322L287.901 192.183L284.562 144.428L282.567 144.567ZM467.053 330.679L466.056 330.749L466.125 331.747L467.123 331.677L467.053 330.679ZM449.62 81.3681L449.55 80.3705L448.552 80.4403L448.622 81.4379L449.62 81.3681ZM607.634 70.3187L608.631 70.2489L608.562 69.2514L607.564 69.3211L607.634 70.3187ZM611.366 123.692L611.436 124.69L612.433 124.62L612.364 123.623L611.366 123.692ZM509.184 130.838L509.114 129.84L508.116 129.91L508.186 130.907L509.184 130.838ZM512.302 175.433L511.304 175.503L511.374 176.5L512.372 176.43L512.302 175.433ZM593.416 169.761L594.413 169.691L594.344 168.693L593.346 168.763L593.416 169.761ZM597.148 223.134L597.218 224.132L598.215 224.062L598.146 223.065L597.148 223.134ZM516.034 228.806L515.964 227.809L514.967 227.879L515.037 228.876L516.034 228.806ZM519.153 273.402L518.155 273.471L518.225 274.469L519.222 274.399L519.153 273.402ZM621.335 266.256L622.333 266.186L622.263 265.189L621.265 265.259L621.335 266.256ZM625.067 319.63L625.137 320.627L626.135 320.558L626.065 319.56L625.067 319.63ZM468.051 330.61L450.617 81.2984L448.622 81.4379L466.056 330.749L468.051 330.61ZM449.689 82.3657L607.704 71.3162L607.564 69.3211L449.55 80.3705L449.689 82.3657ZM606.636 70.3884L610.369 123.762L612.364 123.623L608.631 70.2489L606.636 70.3884ZM611.296 122.695L509.114 129.84L509.253 131.835L611.436 124.69L611.296 122.695ZM508.186 130.907L511.304 175.503L513.3 175.363L510.181 130.768L508.186 130.907ZM512.372 176.43L593.486 170.758L593.346 168.763L512.232 174.435L512.372 176.43ZM592.418 169.83L596.151 223.204L598.146 223.065L594.413 169.691L592.418 169.83ZM597.078 222.137L515.964 227.809L516.104 229.804L597.218 224.132L597.078 222.137ZM515.037 228.876L518.155 273.471L520.15 273.332L517.032 228.737L515.037 228.876ZM519.222 274.399L621.405 267.254L621.265 265.259L519.083 272.404L519.222 274.399ZM620.338 266.326L624.07 319.7L626.065 319.56L622.333 266.186L620.338 266.326ZM624.998 318.632L466.983 329.682L467.123 331.677L625.137 320.627L624.998 318.632ZM672.153 295.166L672.789 294.394L672.153 295.166ZM639.937 238.138L639.867 237.141L638.827 237.213L638.943 238.249L639.937 238.138ZM695.768 234.234L696.737 233.987L696.531 233.178L695.699 233.236L695.768 234.234ZM711.508 257.481L710.949 258.31L710.963 258.319L710.978 258.328L711.508 257.481ZM763.298 256.329L762.694 255.532L762.687 255.538L762.68 255.544L763.298 256.329ZM736.751 214.784L736.953 213.804L736.944 213.803L736.936 213.801L736.751 214.784ZM712.081 210.157L711.888 211.139L711.896 211.14L712.081 210.157ZM661.005 186.206L661.683 185.47L661.005 186.206ZM639.431 140.079L638.434 140.148L638.435 140.161L639.431 140.079ZM658.752 83.3286L659.463 84.0319L659.463 84.0311L658.752 83.3286ZM785.384 77.6493L784.739 78.4135L784.745 78.4182L785.384 77.6493ZM815.15 129.908L815.22 130.906L816.264 130.833L816.143 129.793L815.15 129.908ZM759.669 133.788L758.728 134.126L758.984 134.838L759.739 134.785L759.669 133.788ZM744.926 114.706L744.431 115.574L744.926 114.706ZM702.715 116.599L703.319 117.396L702.715 116.599ZM695.344 132.287L694.345 132.321L695.344 132.287ZM703.496 147.949L702.9 148.752L702.909 148.758L702.919 148.765L703.496 147.949ZM727.408 156.862L727.213 157.843L727.225 157.846L727.408 156.862ZM756.366 162.248L756.559 161.266L756.549 161.264L756.366 162.248ZM806.764 186.599L806.066 187.315L806.073 187.322L806.764 186.599ZM806.911 289.624L807.619 290.33L807.625 290.325L806.911 289.624ZM744.08 314.54C715.257 316.555 691.525 309.812 672.789 294.394L671.518 295.938C690.721 311.741 714.987 318.579 744.219 316.535L744.08 314.54ZM672.789 294.394C654 278.932 643.407 260.152 640.931 238.027L638.943 238.249C641.482 260.94 652.367 280.178 671.518 295.938L672.789 294.394ZM640.006 239.136L695.838 235.232L695.699 233.236L639.867 237.141L640.006 239.136ZM694.799 234.481C697.446 244.862 702.824 252.83 710.949 258.31L712.068 256.652C704.392 251.475 699.276 243.944 696.737 233.987L694.799 234.481ZM710.978 258.328C719.305 263.537 729.201 265.715 740.61 264.917L740.47 262.922C729.406 263.695 719.947 261.58 712.039 256.633L710.978 258.328ZM740.61 264.917C750.338 264.237 758.138 261.665 763.917 257.115L762.68 255.544C757.31 259.771 749.938 262.26 740.47 262.922L740.61 264.917ZM763.903 257.126C769.957 252.534 772.796 246.622 772.296 239.468L770.301 239.608C770.75 246.032 768.256 251.314 762.694 255.532L763.903 257.126ZM772.296 239.468C771.854 233.146 768.569 227.847 762.618 223.583C756.698 219.341 748.115 216.1 736.953 213.804L736.55 215.763C747.584 218.032 755.857 221.199 761.453 225.208C767.018 229.196 769.908 233.991 770.301 239.608L772.296 239.468ZM736.936 213.801L712.265 209.175L711.896 211.14L736.567 215.767L736.936 213.801ZM712.273 209.176C691.183 205.042 674.34 197.125 661.683 185.47L660.328 186.942C673.316 198.9 690.523 206.95 711.888 211.139L712.273 209.176ZM661.683 185.47C649.062 173.85 641.969 158.716 640.428 139.996L638.435 140.161C640.013 159.332 647.303 174.949 660.328 186.942L661.683 185.47ZM640.429 140.009C638.825 117.08 645.191 98.4581 659.463 84.0319L658.041 82.6253C643.311 97.5149 636.796 116.727 638.434 140.148L640.429 140.009ZM659.463 84.0311C673.972 69.3352 694.073 61.0424 719.876 59.2381L719.736 57.2429C693.571 59.0726 672.968 67.5052 658.04 82.626L659.463 84.0311ZM719.876 59.2381C745.877 57.4199 767.468 63.8337 784.739 78.4135L786.029 76.8852C768.301 61.9198 746.173 55.3943 719.736 57.2429L719.876 59.2381ZM784.745 78.4182C802.055 92.8126 811.829 110.008 814.157 130.024L816.143 129.793C813.749 109.207 803.68 91.5631 786.023 76.8804L784.745 78.4182ZM815.08 128.911L759.6 132.79L759.739 134.785L815.22 130.906L815.08 128.911ZM760.61 133.45C757.337 124.333 752.292 117.754 745.422 113.837L744.431 115.574C750.791 119.201 755.575 125.343 758.728 134.126L760.61 133.45ZM745.422 113.837C738.632 109.966 731.264 108.307 723.346 108.861L723.485 110.856C731.017 110.329 737.99 111.902 744.431 115.574L745.422 113.837ZM723.346 108.861C714.556 109.476 707.451 111.762 702.112 115.801L703.319 117.396C708.258 113.66 714.952 111.453 723.485 110.856L723.346 108.861ZM702.112 115.801C696.708 119.89 694.109 125.433 694.345 132.321L696.343 132.253C696.13 125.999 698.446 121.083 703.319 117.396L702.112 115.801ZM694.345 132.321C694.579 139.192 697.441 144.697 702.9 148.752L704.093 147.146C699.13 143.46 696.557 138.525 696.343 132.253L694.345 132.321ZM702.919 148.765C708.526 152.734 716.653 155.742 727.213 157.843L727.604 155.882C717.171 153.806 709.356 150.871 704.074 147.133L702.919 148.765ZM727.225 157.846L756.184 163.231L756.549 161.264L727.591 155.879L727.225 157.846ZM756.174 163.229C777.258 167.362 793.865 175.408 806.066 187.315L807.462 185.884C794.921 173.644 777.929 165.456 756.559 161.266L756.174 163.229ZM806.073 187.322C818.477 199.186 825.369 214.686 826.712 233.899L828.707 233.76C827.333 214.113 820.261 198.126 807.455 185.877L806.073 187.322ZM826.712 233.899C828.198 255.145 821.372 273.464 806.197 288.924L807.625 290.325C823.193 274.464 830.233 255.587 828.707 233.76L826.712 233.899ZM806.203 288.918C791.02 304.137 770.346 312.703 744.08 314.54L744.219 316.535C770.859 314.672 792.025 305.962 807.619 290.33L806.203 288.918ZM830.272 305.281L829.327 304.952L828.829 306.384L830.342 306.278L830.272 305.281ZM919.586 48.5049L919.516 47.5073L918.858 47.5533L918.641 48.1764L919.586 48.5049ZM970.15 44.9691L971.04 44.5123L970.738 43.9255L970.08 43.9715L970.15 44.9691ZM1094.33 286.816L1094.4 287.813L1095.91 287.708L1095.22 286.359L1094.33 286.816ZM1036.04 290.892L1035.15 291.342L1035.45 291.936L1036.11 291.889L1036.04 290.892ZM1010.24 239.767L1011.13 239.317L1010.83 238.723L1010.17 238.77L1010.24 239.767ZM907 246.986L906.931 245.989L906.268 246.035L906.054 246.664L907 246.986ZM888.561 301.205L888.631 302.202L889.294 302.156L889.508 301.527L888.561 301.205ZM950 120.126L950.893 119.677L949.825 117.55L949.054 119.802L950 120.126ZM923.627 197.129L922.681 196.805L922.192 198.232L923.697 198.127L923.627 197.129ZM986.481 192.734L986.551 193.731L988.049 193.627L987.375 192.285L986.481 192.734ZM831.216 305.609L920.53 48.8334L918.641 48.1764L829.327 304.952L831.216 305.609ZM919.655 49.5025L970.22 45.9666L970.08 43.9715L919.516 47.5073L919.655 49.5025ZM969.261 45.4259L1093.44 287.273L1095.22 286.359L971.04 44.5123L969.261 45.4259ZM1094.26 285.818L1035.97 289.894L1036.11 291.889L1094.4 287.813L1094.26 285.818ZM1036.93 290.441L1011.13 239.317L1009.34 240.218L1035.15 291.342L1036.93 290.441ZM1010.17 238.77L906.931 245.989L907.07 247.984L1010.31 240.765L1010.17 238.77ZM906.054 246.664L887.615 300.883L889.508 301.527L907.947 247.308L906.054 246.664ZM888.492 300.207L830.202 304.283L830.342 306.278L888.631 302.202L888.492 300.207ZM949.054 119.802L922.681 196.805L924.573 197.453L950.946 120.45L949.054 119.802ZM923.697 198.127L986.551 193.731L986.412 191.736L923.557 196.131L923.697 198.127ZM987.375 192.285L950.893 119.677L949.106 120.575L985.588 193.183L987.375 192.285ZM1113.29 285.49L1112.3 285.56L1112.36 286.557L1113.36 286.487L1113.29 285.49ZM1095.86 36.1786L1095.79 35.1811L1094.79 35.2508L1094.86 36.2484L1095.86 36.1786ZM1151.69 32.2745L1152.69 32.2048L1152.62 31.2072L1151.62 31.2769L1151.69 32.2745ZM1165.39 228.212L1164.39 228.282L1164.46 229.279L1165.46 229.21L1165.39 228.212ZM1268.63 220.993L1269.63 220.923L1269.56 219.926L1268.56 219.996L1268.63 220.993ZM1272.36 274.367L1272.43 275.364L1273.43 275.295L1273.36 274.297L1272.36 274.367ZM1114.29 285.42L1096.86 36.1089L1094.86 36.2484L1112.3 285.56L1114.29 285.42ZM1095.93 37.1762L1151.76 33.2721L1151.62 31.2769L1095.79 35.1811L1095.93 37.1762ZM1150.69 32.3443L1164.39 228.282L1166.39 228.142L1152.69 32.2048L1150.69 32.3443ZM1165.46 229.21L1268.7 221.991L1268.56 219.996L1165.32 227.215L1165.46 229.21ZM1267.63 221.063L1271.36 274.437L1273.36 274.297L1269.63 220.923L1267.63 221.063ZM1272.29 273.369L1113.22 284.492L1113.36 286.487L1272.43 275.364L1272.29 273.369ZM1300.02 272.433L1299.02 272.503L1299.09 273.5L1300.09 273.431L1300.02 272.433ZM1282.58 23.1217L1282.51 22.1242L1281.51 22.1939L1281.58 23.1915L1282.58 23.1217ZM1440.6 12.0723L1441.59 12.0025L1441.52 11.005L1440.53 11.0747L1440.6 12.0723ZM1444.33 65.446L1444.4 66.4435L1445.4 66.3738L1445.33 65.3762L1444.33 65.446ZM1342.15 72.5913L1342.08 71.5937L1341.08 71.6634L1341.15 72.661L1342.15 72.5913ZM1345.26 117.186L1344.27 117.256L1344.34 118.254L1345.33 118.184L1345.26 117.186ZM1426.38 111.514L1427.38 111.445L1427.31 110.447L1426.31 110.517L1426.38 111.514ZM1430.11 164.888L1430.18 165.886L1431.18 165.816L1431.11 164.818L1430.11 164.888ZM1349 170.56L1348.93 169.562L1347.93 169.632L1348 170.63L1349 170.56ZM1352.11 215.155L1351.12 215.225L1351.19 216.222L1352.18 216.153L1352.11 215.155ZM1454.3 208.01L1455.29 207.94L1455.23 206.943L1454.23 207.012L1454.3 208.01ZM1458.03 261.384L1458.1 262.381L1459.1 262.311L1459.03 261.314L1458.03 261.384ZM1301.01 272.363L1283.58 23.052L1281.58 23.1915L1299.02 272.503L1301.01 272.363ZM1282.65 24.1193L1440.67 13.0699L1440.53 11.0747L1282.51 22.1242L1282.65 24.1193ZM1439.6 12.142L1443.33 65.5157L1445.33 65.3762L1441.59 12.0025L1439.6 12.142ZM1444.26 64.4484L1342.08 71.5937L1342.22 73.5888L1444.4 66.4435L1444.26 64.4484ZM1341.15 72.661L1344.27 117.256L1346.26 117.117L1343.14 72.5215L1341.15 72.661ZM1345.33 118.184L1426.45 112.512L1426.31 110.517L1345.19 116.189L1345.33 118.184ZM1425.38 111.584L1429.11 164.958L1431.11 164.818L1427.38 111.445L1425.38 111.584ZM1430.04 163.89L1348.93 169.562L1349.07 171.558L1430.18 165.886L1430.04 163.89ZM1348 170.63L1351.12 215.225L1353.11 215.085L1349.99 170.49L1348 170.63ZM1352.18 216.153L1454.37 209.007L1454.23 207.012L1352.05 214.158L1352.18 216.153ZM1453.3 208.08L1457.03 261.453L1459.03 261.314L1455.29 207.94L1453.3 208.08ZM1457.96 260.386L1299.95 271.435L1300.09 273.431L1458.1 262.381L1457.96 260.386Z" fill="#5DCB29"/>
</svg>
