<svg width="143" height="32" viewBox="0 0 143 32" fill="none" xmlns="http://www.w3.org/2000/svg">
<path d="M27.248 22V13.072H24.352V10.64H32.736V13.072H29.808V22H27.248ZM36.4163 18.72C37.0669 19.392 37.8509 19.728 38.7683 19.728C39.6856 19.728 40.4643 19.392 41.1043 18.72C41.7443 18.048 42.0643 17.248 42.0643 16.32C42.0643 15.392 41.7443 14.592 41.1043 13.92C40.4643 13.248 39.6856 12.912 38.7683 12.912C37.8509 12.912 37.0669 13.248 36.4163 13.92C35.7763 14.592 35.4563 15.392 35.4563 16.32C35.4563 17.248 35.7763 18.048 36.4163 18.72ZM42.9123 20.464C41.7709 21.616 40.3896 22.192 38.7683 22.192C37.1469 22.192 35.7603 21.6213 34.6083 20.48C33.4669 19.328 32.8963 17.9413 32.8963 16.32C32.8963 14.6987 33.4669 13.3173 34.6083 12.176C35.7603 11.024 37.1469 10.448 38.7683 10.448C40.3896 10.448 41.7709 11.024 42.9123 12.176C44.0643 13.328 44.6403 14.7093 44.6403 16.32C44.6403 17.9307 44.0643 19.312 42.9123 20.464ZM53.2276 22L48.6036 16.912V22H46.0756V10.64H48.6036V15.392L52.4596 10.64H55.5796L51.0996 16.096L56.4916 22H53.2276ZM56.9588 22V10.64H64.1588V13.072H59.5028V15.104H63.1988V17.536H59.5028V19.568H64.1588V22H56.9588ZM76.0514 22H73.8594L68.3234 14.976V22H65.7794V10.64H67.9714L73.4914 17.664V10.64H76.0514V22ZM81.405 22V10.64H83.949V22H81.405ZM96.2945 22H94.1025L88.5665 14.976V22H86.0225V10.64H88.2145L93.7345 17.664V10.64H96.2945V22ZM98.3744 22V10.64H105.366V13.072H100.918V15.12H104.39V17.552H100.918V22H98.3744ZM109.434 18.72C110.085 19.392 110.869 19.728 111.786 19.728C112.704 19.728 113.482 19.392 114.122 18.72C114.762 18.048 115.082 17.248 115.082 16.32C115.082 15.392 114.762 14.592 114.122 13.92C113.482 13.248 112.704 12.912 111.786 12.912C110.869 12.912 110.085 13.248 109.434 13.92C108.794 14.592 108.474 15.392 108.474 16.32C108.474 17.248 108.794 18.048 109.434 18.72ZM115.93 20.464C114.789 21.616 113.408 22.192 111.786 22.192C110.165 22.192 108.778 21.6213 107.626 20.48C106.485 19.328 105.914 17.9413 105.914 16.32C105.914 14.6987 106.485 13.3173 107.626 12.176C108.778 11.024 110.165 10.448 111.786 10.448C113.408 10.448 114.789 11.024 115.93 12.176C117.082 13.328 117.658 14.7093 117.658 16.32C117.658 17.9307 117.082 19.312 115.93 20.464Z" fill="#E7DEFF"/>
<path d="M0 0V-2H-2V0H0ZM143 0H145V-2H143V0ZM143 32V34H145V32H143ZM0 32H-2V34H0V32ZM0 2H143V-2H0V2ZM141 0V32H145V0H141ZM143 30H0V34H143V30ZM2 32V0H-2V32H2Z" fill="#E7DEFF"/>
</svg>
