<svg width="177" height="156" viewBox="0 0 177 156" fill="none" xmlns="http://www.w3.org/2000/svg">
<path d="M3.1853 43.7478L166.561 29.4543L175.73 134.258C176.045 137.857 173.378 141.034 169.777 141.349L19.449 154.501C15.8477 154.817 12.6694 152.151 12.3544 148.552L3.1853 43.7478Z" fill="#0E0034" stroke="#4100FB" stroke-width="2" stroke-miterlimit="10"/>
<path d="M7.24722 15.0342L157.575 1.88222C161.176 1.56715 164.355 4.23268 164.67 7.83206L166.561 29.4544L3.18534 43.748L1.29363 22.1256C0.97872 18.5262 3.64158 15.3497 7.24722 15.0342Z" fill="#0E0034" stroke="#4100FB" stroke-width="2" stroke-miterlimit="10"/>
<path d="M19.2669 32.643C21.7242 32.428 23.5421 30.2627 23.3272 27.8067C23.1123 25.3507 20.9461 23.5339 18.4887 23.7489C16.0314 23.9639 14.2135 26.1292 14.4284 28.5852C14.6433 31.0413 16.8095 32.858 19.2669 32.643Z" fill="#4100FB" stroke="#4100FB" stroke-width="2" stroke-miterlimit="10"/>
<path d="M34.6419 31.2978C37.0992 31.0828 38.9171 28.9175 38.7022 26.4615C38.4873 24.0054 36.3211 22.1887 33.8637 22.4037C31.4064 22.6187 29.5885 24.784 29.8034 27.24C30.0183 29.6961 32.1845 31.5128 34.6419 31.2978Z" fill="#4100FB" stroke="#4100FB" stroke-width="2" stroke-miterlimit="10"/>
<path d="M50.0125 29.9531C52.4698 29.7381 54.2877 27.5728 54.0728 25.1168C53.8579 22.6607 51.6917 20.844 49.2343 21.059C46.777 21.274 44.9591 23.4393 45.174 25.8953C45.3889 28.3514 47.5551 30.1681 50.0125 29.9531Z" fill="#4100FB" stroke="#4100FB" stroke-width="2" stroke-miterlimit="10"/>
<path d="M23.876 140.43L162.974 128.26" stroke="#4100FB" stroke-width="2" stroke-miterlimit="10"/>
<path d="M39.1914 85.4524L26.3215 86.5784L30.9786 139.808L43.8484 138.682L39.1914 85.4524Z" fill="#0E0034" stroke="#4100FB" stroke-width="2" stroke-miterlimit="10"/>
<path d="M58.4362 90.7688L45.5664 91.8948L49.6157 138.178L62.4855 137.052L58.4362 90.7688Z" fill="#0E0034" stroke="#4100FB" stroke-width="2" stroke-miterlimit="10"/>
<path d="M84.4426 64.8652L71.5728 65.9912L77.6735 135.723L90.5433 134.597L84.4426 64.8652Z" fill="#0E0034" stroke="#4100FB" stroke-width="2" stroke-miterlimit="10"/>
<path d="M101.752 48.1121L88.8826 49.238L96.306 134.089L109.176 132.963L101.752 48.1121Z" fill="#0E0034" stroke="#4100FB" stroke-width="2" stroke-miterlimit="10"/>
<path d="M131.598 66.0928L118.728 67.2188L124.364 131.634L137.234 130.508L131.598 66.0928Z" fill="#0E0034" stroke="#4100FB" stroke-width="2" stroke-miterlimit="10"/>
<path d="M149.166 52.2471L136.297 53.373L143.001 130.008L155.871 128.882L149.166 52.2471Z" fill="#0E0034" stroke="#4100FB" stroke-width="2" stroke-miterlimit="10"/>
</svg>
