<svg width="137" height="137" viewBox="0 0 137 137" fill="none" xmlns="http://www.w3.org/2000/svg">
<path d="M120.098 120.824L94.8541 103.874L98.0725 111.671L34.2284 116.136C26.8837 116.649 20.5113 111.112 19.9975 103.765L15.161 34.6007C14.6473 27.2533 20.1871 20.8833 27.5318 20.3697L99.3564 15.3473C106.704 14.8335 113.074 20.3706 113.587 27.718L120.098 120.824Z" fill="#8C9EFF"/>
<path d="M89.7159 46.0677C89.7159 46.0677 82.4255 41.2044 74.1894 41.1655L73.5735 42.6788C81.0934 43.944 84.6522 46.2881 88.4116 49.2063C82.1022 46.5199 75.8385 43.7233 65.3042 44.46C54.77 45.1966 48.9565 48.8376 43.0823 52.376C46.399 48.963 50.2415 45.8073 56.8676 43.847L56.047 42.4341C47.5124 43.8596 41.354 49.4495 41.354 49.4495C41.354 49.4495 34.3923 61.1369 34.5857 83.0167C43.0316 91.408 54.8731 90.6334 54.8731 90.6334L57.0916 87.1903C52.8147 86.0458 47.8726 83.7984 43.4485 79.403C48.5999 82.7318 56.1769 85.1959 68.0945 84.3625C80.0121 83.5292 87.1724 80.0345 91.8104 76.0212C88.0411 80.9896 83.4599 83.9029 79.3839 85.6314L82.06 88.7323C82.06 88.7323 93.8941 87.8513 101.09 78.3663C98.2364 56.6725 89.7159 46.0677 89.7159 46.0677ZM58.2259 77.0331C55.2997 77.2377 52.6972 74.4257 52.4405 70.7547C52.1838 67.0836 54.3696 63.9368 57.2958 63.7322C60.222 63.5276 62.8244 66.3396 63.0812 70.0106C63.3379 73.6816 61.152 76.8285 58.2259 77.0331ZM76.8471 75.731C73.9209 75.9356 71.3184 73.1236 71.0617 69.4526C70.805 65.7815 72.9908 62.6347 75.917 62.4301C78.8432 62.2255 81.4457 65.0375 81.7024 68.7085C81.9591 72.3795 79.7732 75.5263 76.8471 75.731Z" fill="white"/>
</svg>
