<svg width="169" height="97" viewBox="0 0 169 97" fill="none" xmlns="http://www.w3.org/2000/svg">
<path d="M99.3121 2.64425C77.0131 -4.51581 53.3094 5.33869 42.3237 24.9912C41.53 26.4106 40.8056 27.8803 40.1505 29.4003C39.5457 30.8072 38.9914 32.2455 38.5127 33.7277C38.0339 35.21 37.6371 36.7048 37.3095 38.1933C36.9505 39.8075 36.6796 41.4216 36.4969 43.0358C33.9143 65.389 47.3945 87.1832 69.6935 94.3433C91.9925 101.503 115.696 91.6488 126.682 71.9964C127.476 70.5769 128.2 69.1072 128.855 67.5873C129.46 66.1804 130.014 64.7421 130.493 63.2598C130.972 61.7776 131.369 60.2828 131.696 58.7942C132.055 57.1801 132.326 55.5659 132.509 53.9517C135.085 31.6048 121.611 9.81059 99.3121 2.64425Z" fill="#3500CC"/>
<path d="M95.8228 58.5061L78.8303 72.5121L71.1173 51.8862L81.1728 61.8526L81.5787 62.2549L82.1313 62.1094L95.8228 58.5061ZM83.1946 56.2241L71.1993 43.5234L91.8219 24.0267L99.9332 51.2226L83.1946 56.2241Z" stroke="white" stroke-width="2"/>
<path d="M37.3041 45.7873C37.6317 44.2925 38.0285 42.804 38.5072 41.3217C38.986 39.8395 39.5403 38.3949 40.145 36.9943C40.8001 35.4743 41.5245 34.0046 42.3182 32.5852C53.304 12.9327 77.0077 3.0719 99.3067 10.2382C118.507 16.4059 131.155 33.4268 132.654 52.3068C134.399 30.5439 121.051 9.63529 99.3067 2.65109C77.0077 -4.50898 53.304 5.34553 42.3182 24.998C41.5245 26.4175 40.8001 27.8872 40.145 29.4071C39.5403 30.8077 38.986 32.2523 38.5072 33.7346C38.0285 35.2168 37.6317 36.7116 37.3041 38.2002C36.9451 39.8143 36.6742 41.4285 36.4915 43.0426C36.1325 46.1453 36.0947 49.2417 36.334 52.2879C36.3781 51.7352 36.4222 51.1825 36.4915 50.6298C36.6805 49.0156 36.9514 47.4015 37.3041 45.7873Z" fill="#4100FB"/>
<path d="M131.69 51.4584C131.362 52.9532 130.965 54.4417 130.487 55.924C130.008 57.4063 129.454 58.8508 128.849 60.2514C128.194 61.7714 127.469 63.2411 126.676 64.6605C115.69 84.313 91.9863 94.1738 69.6873 87.0075C50.4875 80.8398 37.8388 63.8189 36.3396 44.939C34.5948 66.7018 47.9427 87.6104 69.6873 94.5946C91.9863 101.755 115.69 91.9002 126.676 72.2477C127.469 70.8282 128.194 69.3585 128.849 67.8386C129.454 66.4317 130.008 64.9934 130.487 63.5112C130.965 62.0289 131.362 60.5341 131.69 59.0455C132.049 57.4314 132.32 55.8172 132.502 54.2031C132.862 51.1004 132.899 48.004 132.654 44.9578C132.61 45.5105 132.565 46.0632 132.502 46.6159C132.32 48.2301 132.049 49.8442 131.69 51.4584Z" fill="#2A00A3"/>
<path opacity="0.3" d="M132.503 53.958C132.314 55.5721 132.043 57.1863 131.69 58.8004C138.581 62.3616 142.417 65.2759 141.882 66.9277C141.347 68.5796 136.528 68.7114 128.849 67.5998C117.807 65.9919 100.837 61.7963 82.1409 55.7982C63.445 49.8001 47.2121 43.3246 37.3035 38.1995C30.4123 34.6383 26.5824 31.7241 27.1115 30.0722C27.6469 28.4204 32.4658 28.2885 40.1444 29.4002C40.7996 27.8802 41.524 26.4105 42.3177 24.9911C18.2549 19.3573 1.61252 17.6866 0.384186 21.4864C-0.844149 25.28 13.6502 33.6146 36.4909 43.042C49.1837 48.2801 64.4466 53.8637 81.0448 59.1898C97.6431 64.5222 113.303 68.8685 126.676 72.0026C150.739 77.6364 167.381 79.3071 168.609 75.5072C169.838 71.7137 155.343 63.3854 132.503 53.958Z" fill="#6833FF"/>
</svg>
