<svg width="101" height="101" viewBox="0 0 101 101" fill="none" xmlns="http://www.w3.org/2000/svg">
<path d="M53.4425 97.5088C79.3367 95.6981 98.8603 73.2389 97.0496 47.3447C95.2389 21.4505 72.7796 1.92711 46.8854 3.73781C20.9912 5.54851 1.46785 28.0077 3.27855 53.9018C5.08925 79.796 27.5483 99.3195 53.4425 97.5088Z" stroke="#5DCB29" stroke-width="3" stroke-miterlimit="10"/>
<path d="M28.3125 83.3696C31.0592 73.2881 39.9421 65.5506 50.9366 64.7818C61.9361 64.0127 71.8046 70.4389 75.9325 80.0397" stroke="#5DCB29" stroke-width="3" stroke-miterlimit="10"/>
<path d="M30.6738 83.6454C30.6738 83.6454 28.6134 82.7198 26.3201 83.0684" stroke="#5DCB29" stroke-width="3" stroke-miterlimit="10"/>
<path d="M73.8139 80.6287C73.8139 80.6287 75.7254 79.4254 78.0448 79.4514" stroke="#5DCB29" stroke-width="3" stroke-miterlimit="10"/>
<path d="M62.0681 52.5243C66.2214 52.2338 69.0923 44.9028 68.4802 36.1498C67.8682 27.3969 64.0049 20.5366 59.8516 20.827C55.6983 21.1174 52.8277 28.4486 53.4398 37.2015C54.0519 45.9545 57.9148 52.8147 62.0681 52.5243Z" fill="#5DCB29"/>
<path d="M38.645 54.1635C42.7983 53.8731 45.669 46.5421 45.0569 37.7891C44.4448 29.0361 40.5818 22.1758 36.4285 22.4663C32.2752 22.7567 29.4044 30.0879 30.0165 38.8408C30.6285 47.5938 34.4917 54.454 38.645 54.1635Z" fill="#5DCB29"/>
</svg>
