<svg width="178" height="24" viewBox="0 0 178 24" fill="none" xmlns="http://www.w3.org/2000/svg">
<rect width="178" height="24" fill="#FFCB00"/>
<path d="M16.975 7.77H18.86L21.733 11.748L24.632 7.77H26.517V17H24.437V11.319L21.746 15.037L19.042 11.306V17H16.975V7.77ZM28.2043 17V7.77H30.2713V17H28.2043ZM40.302 17H38.521L34.023 11.293V17H31.956V7.77H33.737L38.222 13.477V7.77H40.302V17ZM43.6559 17V9.746H41.3029V7.77H48.1149V9.746H45.7359V17H43.6559ZM49.1205 17V7.77H51.1875V17H49.1205ZM61.2183 17H59.4373L54.9393 11.293V17H52.8723V7.77H54.6533L59.1383 13.477V7.77H61.2183V17ZM67.2762 17.156C65.8635 17.156 64.6978 16.6967 63.7792 15.778C62.8605 14.8593 62.4012 13.7283 62.4012 12.385C62.4012 11.0417 62.8605 9.91067 63.7792 8.992C64.6978 8.07333 65.8548 7.614 67.2502 7.614C68.2122 7.614 69.0962 7.874 69.9022 8.394C70.7082 8.914 71.2715 9.616 71.5922 10.5H69.2132C68.7538 9.91067 68.0995 9.616 67.2502 9.616C66.4182 9.616 65.7465 9.88033 65.2352 10.409C64.7325 10.9377 64.4812 11.5963 64.4812 12.385C64.4812 13.1737 64.7368 13.8323 65.2482 14.361C65.7595 14.8897 66.4355 15.154 67.2762 15.154C68.6368 15.154 69.4342 14.5517 69.6682 13.347H67.0162V11.41H71.8132C71.9258 12.3547 71.8825 13.204 71.6832 13.958C71.4925 14.7033 71.1805 15.3057 70.7472 15.765C70.3225 16.2157 69.8155 16.5623 69.2262 16.805C68.6368 17.039 67.9868 17.156 67.2762 17.156ZM78.8119 17.156C77.7373 17.156 76.8706 16.844 76.2119 16.22C75.5533 15.596 75.2066 14.868 75.1719 14.036H77.2389C77.3083 14.4173 77.4816 14.7163 77.7589 14.933C78.0449 15.141 78.3959 15.245 78.8119 15.245C79.1673 15.245 79.4533 15.1713 79.6699 15.024C79.8953 14.8767 80.0079 14.6773 80.0079 14.426C80.0079 13.984 79.6049 13.6503 78.7989 13.425L77.9019 13.191C77.1306 12.983 76.5239 12.645 76.0819 12.177C75.6399 11.709 75.4146 11.124 75.4059 10.422C75.4059 9.564 75.6919 8.88367 76.2639 8.381C76.8446 7.86967 77.6159 7.614 78.5779 7.614C79.5486 7.614 80.3373 7.90867 80.9439 8.498C81.5506 9.07867 81.8713 9.746 81.9059 10.5H79.8519C79.7566 10.162 79.5919 9.915 79.3579 9.759C79.1239 9.603 78.8639 9.525 78.5779 9.525C78.2573 9.525 77.9973 9.59 77.7979 9.72C77.5986 9.85 77.4946 10.0363 77.4859 10.279C77.4773 10.5217 77.5639 10.721 77.7459 10.877C77.9366 11.033 78.2226 11.163 78.6039 11.267L79.6569 11.54C80.4283 11.748 81.0263 12.0903 81.4509 12.567C81.8843 13.0437 82.1009 13.6417 82.1009 14.361C82.1009 15.1583 81.7976 15.8257 81.1909 16.363C80.5843 16.8917 79.7913 17.156 78.8119 17.156ZM84.7521 17V9.746H82.3991V7.77H89.2111V9.746H86.8321V17H84.7521ZM88.2893 17L92.2413 7.77H94.1133L98.0653 17H95.9073L95.0883 15.05H91.2663L90.4473 17H88.2893ZM93.1773 10.487L92.0073 13.256H94.3343L93.1773 10.487ZM98.7673 17V7.77H102.407C103.257 7.77 103.946 8.03867 104.474 8.576C105.003 9.11333 105.267 9.772 105.267 10.552C105.267 11.7133 104.665 12.5063 103.46 12.931L106.723 17H104.24L101.159 13.191H100.834V17H98.7673ZM100.834 11.436H102.16C102.472 11.436 102.724 11.3537 102.914 11.189C103.114 11.0243 103.213 10.812 103.213 10.552C103.213 10.2747 103.114 10.058 102.914 9.902C102.724 9.746 102.472 9.668 102.16 9.668H100.834V11.436ZM108.487 17V9.746H106.134V7.77H112.946V9.746H110.567V17H108.487ZM116.905 17.156C115.831 17.156 114.964 16.844 114.305 16.22C113.647 15.596 113.3 14.868 113.265 14.036H115.332C115.402 14.4173 115.575 14.7163 115.852 14.933C116.138 15.141 116.489 15.245 116.905 15.245C117.261 15.245 117.547 15.1713 117.763 15.024C117.989 14.8767 118.101 14.6773 118.101 14.426C118.101 13.984 117.698 13.6503 116.892 13.425L115.995 13.191C115.224 12.983 114.617 12.645 114.175 12.177C113.733 11.709 113.508 11.124 113.499 10.422C113.499 9.564 113.785 8.88367 114.357 8.381C114.938 7.86967 115.709 7.614 116.671 7.614C117.642 7.614 118.431 7.90867 119.037 8.498C119.644 9.07867 119.965 9.746 119.999 10.5H117.945C117.85 10.162 117.685 9.915 117.451 9.759C117.217 9.603 116.957 9.525 116.671 9.525C116.351 9.525 116.091 9.59 115.891 9.72C115.692 9.85 115.588 10.0363 115.579 10.279C115.571 10.5217 115.657 10.721 115.839 10.877C116.03 11.033 116.316 11.163 116.697 11.267L117.75 11.54C118.522 11.748 119.12 12.0903 119.544 12.567C119.978 13.0437 120.194 13.6417 120.194 14.361C120.194 15.1583 119.891 15.8257 119.284 16.363C118.678 16.8917 117.885 17.156 116.905 17.156ZM127.126 17.156C126.051 17.156 125.184 16.844 124.526 16.22C123.867 15.596 123.52 14.868 123.486 14.036H125.553C125.622 14.4173 125.795 14.7163 126.073 14.933C126.359 15.141 126.71 15.245 127.126 15.245C127.481 15.245 127.767 15.1713 127.984 15.024C128.209 14.8767 128.322 14.6773 128.322 14.426C128.322 13.984 127.919 13.6503 127.113 13.425L126.216 13.191C125.444 12.983 124.838 12.645 124.396 12.177C123.954 11.709 123.728 11.124 123.72 10.422C123.72 9.564 124.006 8.88367 124.578 8.381C125.158 7.86967 125.93 7.614 126.892 7.614C127.862 7.614 128.651 7.90867 129.258 8.498C129.864 9.07867 130.185 9.746 130.22 10.5H128.166C128.07 10.162 127.906 9.915 127.672 9.759C127.438 9.603 127.178 9.525 126.892 9.525C126.571 9.525 126.311 9.59 126.112 9.72C125.912 9.85 125.808 10.0363 125.8 10.279C125.791 10.5217 125.878 10.721 126.06 10.877C126.25 11.033 126.536 11.163 126.918 11.267L127.971 11.54C128.742 11.748 129.34 12.0903 129.765 12.567C130.198 13.0437 130.415 13.6417 130.415 14.361C130.415 15.1583 130.111 15.8257 129.505 16.363C128.898 16.8917 128.105 17.156 127.126 17.156ZM133.945 14.335C134.474 14.881 135.111 15.154 135.856 15.154C136.601 15.154 137.234 14.881 137.754 14.335C138.274 13.789 138.534 13.139 138.534 12.385C138.534 11.631 138.274 10.981 137.754 10.435C137.234 9.889 136.601 9.616 135.856 9.616C135.111 9.616 134.474 9.889 133.945 10.435C133.425 10.981 133.165 11.631 133.165 12.385C133.165 13.139 133.425 13.789 133.945 14.335ZM139.223 15.752C138.296 16.688 137.173 17.156 135.856 17.156C134.539 17.156 133.412 16.6923 132.476 15.765C131.549 14.829 131.085 13.7023 131.085 12.385C131.085 11.0677 131.549 9.94533 132.476 9.018C133.412 8.082 134.539 7.614 135.856 7.614C137.173 7.614 138.296 8.082 139.223 9.018C140.159 9.954 140.627 11.0763 140.627 12.385C140.627 13.6937 140.159 14.816 139.223 15.752ZM144.133 14.335C144.662 14.881 145.299 15.154 146.044 15.154C146.79 15.154 147.422 14.881 147.942 14.335C148.462 13.789 148.722 13.139 148.722 12.385C148.722 11.631 148.462 10.981 147.942 10.435C147.422 9.889 146.79 9.616 146.044 9.616C145.299 9.616 144.662 9.889 144.133 10.435C143.613 10.981 143.353 11.631 143.353 12.385C143.353 13.139 143.613 13.789 144.133 14.335ZM149.411 15.752C148.484 16.688 147.362 17.156 146.044 17.156C144.727 17.156 143.6 16.6923 142.664 15.765C141.737 14.829 141.273 13.7023 141.273 12.385C141.273 11.0677 141.737 9.94533 142.664 9.018C143.6 8.082 144.727 7.614 146.044 7.614C147.362 7.614 148.484 8.082 149.411 9.018C150.347 9.954 150.815 11.0763 150.815 12.385C150.815 13.6937 150.347 14.816 149.411 15.752ZM160.328 17H158.547L154.049 11.293V17H151.982V7.77H153.763L158.248 13.477V7.77H160.328V17Z" fill="#0E0034"/>
</svg>
