<svg width="128" height="128" viewBox="0 0 128 128" fill="none" xmlns="http://www.w3.org/2000/svg">
<path d="M64 10.6667C49.8551 10.6667 36.2895 16.2858 26.2876 26.2877C16.2857 36.2897 10.6666 49.8552 10.6666 64.0001C10.6666 78.145 16.2857 91.7105 26.2876 101.712C36.2895 111.714 49.8551 117.333 64 117.333C78.1448 117.333 91.7104 111.714 101.712 101.712C111.714 91.7105 117.333 78.145 117.333 64.0001C117.333 49.8552 111.714 36.2897 101.712 26.2877C91.7104 16.2858 78.1448 10.6667 64 10.6667Z" fill="#03A9F4"/>
<path d="M96 45.6533C93.648 46.696 90.6693 47.6747 88 48C90.7147 46.3893 95.0213 43.0347 96 40C93.464 41.4907 88.8773 43.0827 85.8853 43.6587C83.496 41.1253 80.088 40 76.312 40C69.0587 40 64 46.1467 64 53.3333V58.6667C53.3333 58.6667 42.9333 50.5413 36.4613 42.6667C35.3227 44.5893 34.6827 46.84 34.6827 49.2187C34.6827 54.0693 39.1387 58.992 42.6667 61.3333C40.5147 61.2667 36.44 59.624 34.6667 58.6667C34.6667 58.7093 34.6667 58.7627 34.6667 58.8187C34.6667 65.1307 39.096 69.416 45.0987 70.6107C44.0027 70.912 42.6667 72 37.5253 72C39.1947 77.16 47.5867 79.888 53.3333 80C48.8373 83.4853 40.8213 85.3333 34.6667 85.3333C33.6027 85.3333 33.0267 85.392 32 85.272C37.808 88.952 45.92 90.6667 53.3333 90.6667C77.4853 90.6667 90.6667 72.2187 90.6667 55.0133C90.6667 54.448 90.648 52.5547 90.6187 52C93.2 50.1813 94.2453 48.2773 96 45.6533Z" fill="white"/>
</svg>
